HIERARCHY
ROOT joint_Root
{
	OFFSET 0.0 0.0 0.0
	CHANNELS 6 Xposition Yposition Zposition Zrotation Xrotation Yrotation 
	JOINT Hips
	{
		OFFSET -17.1583 93.1646 452.98
		CHANNELS 6 Xposition Yposition Zposition Zrotation Xrotation Yrotation 
		JOINT Spine
		{
			OFFSET 15.7357 0.0 0.0
			CHANNELS 6 Xposition Yposition Zposition Zrotation Xrotation Yrotation 
			JOINT Chest
			{
				OFFSET 8.98455 -0.406207 0.0
				CHANNELS 6 Xposition Yposition Zposition Zrotation Xrotation Yrotation 
				JOINT Neck
				{
					OFFSET 16.3773 0.0 0.0
					CHANNELS 6 Xposition Yposition Zposition Zrotation Xrotation Yrotation 
					JOINT Head
					{
						OFFSET 6.45672 0.0 0.0
						CHANNELS 6 Xposition Yposition Zposition Zrotation Xrotation Yrotation 
						End Site
						{
							OFFSET 0.0 0.0 0.0
						}
					}
				}
				JOINT Shoulder_L
				{
					OFFSET 12.9942 -0.242716 4.98039
					CHANNELS 6 Xposition Yposition Zposition Zrotation Xrotation Yrotation 
					JOINT UpperArm_L
					{
						OFFSET 5.34809 0.0 0.0
						CHANNELS 6 Xposition Yposition Zposition Zrotation Xrotation Yrotation 
						JOINT LowerArm_L
						{
							OFFSET 24.3286 1.87007e-05 0.0
							CHANNELS 6 Xposition Yposition Zposition Zrotation Xrotation Yrotation 
							JOINT Hand_L
							{
								OFFSET 22.2916 0.0 0.0
								CHANNELS 6 Xposition Yposition Zposition Zrotation Xrotation Yrotation 
								End Site
								{
									OFFSET 0.0 0.0 0.0
								}
							}
						}
					}
				}
				JOINT Shoulder_R
				{
					OFFSET 12.9945 -0.242716 -4.98039
					CHANNELS 6 Xposition Yposition Zposition Zrotation Xrotation Yrotation 
					JOINT UpperArm_R
					{
						OFFSET -5.34813 0.0 0.0
						CHANNELS 6 Xposition Yposition Zposition Zrotation Xrotation Yrotation 
						JOINT LowerArm_R
						{
							OFFSET -24.3289 0.000322201 0.0
							CHANNELS 6 Xposition Yposition Zposition Zrotation Xrotation Yrotation 
							JOINT Hand_R
							{
								OFFSET -22.2915 -0.000108084 0.0
								CHANNELS 6 Xposition Yposition Zposition Zrotation Xrotation Yrotation 
								End Site
								{
									OFFSET 0.0 0.0 0.0
								}
							}
						}
					}
				}
			}
		}
		JOINT UpperLeg_L
		{
			OFFSET -2.19248 -6.46944 0.0
			CHANNELS 6 Xposition Yposition Zposition Zrotation Xrotation Yrotation 
			JOINT LowerLeg_L
			{
				OFFSET 39.0811 0.0 -1.23785e-05
				CHANNELS 6 Xposition Yposition Zposition Zrotation Xrotation Yrotation 
				JOINT Foot_L
				{
					OFFSET 40.9854 0.0 -1.26872e-05
					CHANNELS 6 Xposition Yposition Zposition Zrotation Xrotation Yrotation 
					JOINT Toes_L
					{
						OFFSET 11.7543 0.0 0.0
						CHANNELS 6 Xposition Yposition Zposition Zrotation Xrotation Yrotation 
						End Site
						{
							OFFSET 0.0 0.0 0.0
						}
					}
				}
			}
		}
		JOINT UpperLeg_R
		{
			OFFSET -2.19251 6.46944 0.0
			CHANNELS 6 Xposition Yposition Zposition Zrotation Xrotation Yrotation 
			JOINT LowerLeg_R
			{
				OFFSET -39.0811 -0.00228153 -0.0401928
				CHANNELS 6 Xposition Yposition Zposition Zrotation Xrotation Yrotation 
				JOINT Foot_R
				{
					OFFSET -40.9854 0.0 0.0
					CHANNELS 6 Xposition Yposition Zposition Zrotation Xrotation Yrotation 
					JOINT Toes_R
					{
						OFFSET -11.7543 0.0 0.0
						CHANNELS 6 Xposition Yposition Zposition Zrotation Xrotation Yrotation 
						End Site
						{
							OFFSET 0.0 0.0 0.0
						}
					}
				}
			}
		}
	}
}
MOTION
Frames:	6
Frame Time:	0.0333333
0.000000 0.000000 0.000000 0.000000 0.000000 -0.000000 -1.977510 92.292000 0.391958 86.382500 1.650670 4.045660 15.735700 0.000005 -0.000001 84.110500 86.022600 -82.271300 8.984550 -0.406207 -0.000000 0.164619 -0.937963 3.677190 16.377300 -0.000001 -0.000001 7.551810 2.019860 -2.407560 6.456720 -0.000001 -0.000000 -6.133740 1.053390 2.280580 12.994200 -0.242716 4.980390 -92.735600 8.527030 -72.138400 5.348090 -0.000007 -0.000001 -72.055800 26.635200 -1.841330 24.328600 0.000019 0.000005 11.835200 25.323700 -26.100900 22.291600 -0.000001 0.000005 -7.699250 5.072920 5.724670 12.994500 -0.242716 -4.980390 87.781800 6.425100 -70.907700 -5.348130 -0.000001 -0.000004 -68.629800 31.989100 -7.040040 -24.328900 0.000322 -0.000009 1.125670 4.133550 -15.261700 -22.291500 -0.000108 -0.000004 -1.631280 5.312430 -0.278796 -2.192480 -6.469440 -0.000000 -176.588000 1.976160 -1.162790 39.081100 -0.000007 -0.000012 0.302293 -0.678142 24.026400 40.985400 -0.000006 -0.000013 1.738500 3.431100 -74.405400 11.754300 -0.000000 0.000003 -0.001434 0.189025 -8.908530 -2.192510 6.469440 -0.000001 -174.128000 11.322700 -175.775000 -39.081100 -0.002282 -0.040193 0.068584 -0.244616 14.936500 -40.985400 0.000008 0.000006 1.722060 2.468070 -70.795400 -11.754300 -0.000006 -0.000006 -0.008873 0.262684 -5.903470
0.000000 0.000000 0.000000 0.000000 0.000000 -0.000000 -1.958030 92.332300 0.267080 86.416900 1.560060 3.959000 15.735700 0.000005 -0.000001 84.143200 85.978900 -82.285900 8.984550 -0.406207 -0.000000 0.252340 -0.942131 3.714190 16.377300 -0.000001 -0.000001 7.134260 2.136140 -2.583030 6.456720 -0.000001 -0.000000 -6.321790 1.325410 1.845680 12.994200 -0.242716 4.980390 -92.788800 8.769710 -72.281500 5.348090 -0.000007 -0.000001 -71.194400 25.394700 -2.501140 24.328600 0.000019 0.000005 12.543100 26.342600 -26.628300 22.291600 -0.000001 0.000005 -10.043200 5.097710 5.164840 12.994500 -0.242716 -4.980390 87.848500 6.283730 -71.055800 -5.348130 -0.000001 -0.000004 -68.804100 31.898700 -7.096230 -24.328900 0.000322 -0.000009 1.116920 4.120270 -15.195200 -22.291500 -0.000108 -0.000004 -1.693870 5.312770 -0.288606 -2.192480 -6.469440 -0.000000 -176.615000 1.825970 -1.219840 39.081100 -0.000007 -0.000012 0.294343 -0.666254 23.835900 40.985400 -0.000006 -0.000013 1.759600 3.497730 -74.327700 11.754300 -0.000000 0.000003 -0.001702 0.192546 -8.765400 -2.192510 6.469440 -0.000001 -174.151000 11.163100 -175.906000 -39.081100 -0.002282 -0.040193 0.065949 -0.236214 14.847300 -40.985400 0.000008 0.000006 1.580640 2.461790 -70.689900 -11.754300 -0.000006 -0.000006 -0.009162 0.264933 -5.811510
0.000000 0.000000 0.000000 0.000000 0.000000 -0.000000 -1.966140 92.354500 0.142342 86.411800 1.550800 3.874330 15.735700 0.000005 -0.000001 84.169200 85.923100 -82.276100 8.984550 -0.406207 -0.000000 0.364136 -0.950320 3.786480 16.377300 -0.000001 -0.000001 6.727780 2.250880 -2.754600 6.456720 -0.000001 -0.000000 -6.722620 1.579140 1.111440 12.994200 -0.242716 4.980390 -92.837500 8.975100 -72.374600 5.348090 -0.000007 -0.000001 -70.237100 22.583600 -3.289630 24.328600 0.000019 0.000005 13.388100 26.876400 -27.766500 22.291600 -0.000001 0.000005 -12.688500 5.086100 5.434750 12.994500 -0.242716 -4.980390 87.934800 6.076610 -71.188800 -5.348130 -0.000001 -0.000004 -68.998300 31.932300 -7.123610 -24.328900 0.000322 -0.000009 1.125430 4.146260 -15.214200 -22.291500 -0.000108 -0.000004 -1.761990 5.315180 -0.357504 -2.192480 -6.469440 -0.000000 -176.574000 1.733140 -1.394670 39.081100 -0.000007 -0.000012 0.287931 -0.653105 23.791600 40.985400 -0.000006 -0.000013 1.751990 3.556410 -74.108600 11.754300 -0.000000 0.000003 -0.001358 0.188003 -8.950080 -2.192510 6.469440 -0.000001 -174.092000 11.010900 -176.070000 -39.081100 -0.002282 -0.040193 0.064536 -0.231643 14.800700 -40.985400 0.000008 0.000006 1.547560 2.354110 -70.544400 -11.754300 -0.000006 -0.000006 -0.009113 0.264553 -5.827080
0.000000 0.000000 0.000000 0.000000 0.000000 -0.000000 -1.982620 92.403200 -0.020233 86.412600 1.475790 3.705020 15.735700 0.000005 -0.000001 84.776500 85.892800 -82.845400 8.984550 -0.406207 -0.000000 0.431994 -0.871149 3.862670 16.377300 -0.000001 -0.000001 6.207180 2.347830 -2.992860 6.456720 -0.000001 -0.000000 -7.141110 1.752260 0.151450 12.994200 -0.242716 4.980390 -92.834900 8.984750 -72.407100 5.348090 -0.000007 -0.000001 -69.394500 18.674500 -3.889470 24.328600 0.000019 0.000005 14.995300 27.100700 -30.453700 22.291600 -0.000001 0.000005 -14.372600 5.056080 6.104280 12.994500 -0.242716 -4.980390 88.015900 5.885780 -71.333500 -5.348130 -0.000001 -0.000004 -69.151000 32.085800 -7.112180 -24.328900 0.000322 -0.000009 1.096760 4.026120 -15.265900 -22.291500 -0.000108 -0.000004 -1.639510 5.314210 -0.329694 -2.192480 -6.469440 -0.000000 -176.548000 1.541350 -1.561910 39.081100 -0.000007 -0.000012 0.288300 -0.659937 23.599200 40.985400 -0.000006 -0.000013 1.761520 3.668610 -74.017000 11.754300 -0.000000 0.000003 -0.001417 0.188787 -8.918190 -2.192510 6.469440 -0.000001 -174.052000 10.848700 -176.291000 -39.081100 -0.002282 -0.040193 0.058322 -0.210322 14.652600 -40.985400 0.000008 0.000006 1.278990 2.361940 -70.320400 -11.754300 -0.000006 -0.000006 -0.009001 0.263680 -5.862730
0.000000 0.000000 0.000000 0.000000 0.000000 -0.000000 -2.009140 92.443100 -0.189315 86.430800 1.461640 3.458640 15.735700 0.000005 -0.000001 84.982200 85.883500 -83.008300 8.984550 -0.406207 -0.000000 0.453057 -0.845776 3.948370 16.377300 -0.000001 -0.000001 5.695020 2.453880 -3.371160 6.456720 -0.000001 -0.000000 -7.719550 1.912350 -1.082960 12.994200 -0.242716 4.980390 -92.796400 8.806140 -72.304400 5.348090 -0.000007 -0.000001 -68.617000 14.311500 -4.179370 24.328600 0.000019 0.000005 17.608700 26.753900 -35.184600 22.291600 -0.000001 0.000005 -14.623400 5.024050 6.803440 12.994500 -0.242716 -4.980390 88.093400 5.706140 -71.489100 -5.348130 -0.000001 -0.000004 -69.286900 32.033500 -7.113910 -24.328900 0.000322 -0.000009 1.097680 4.029650 -15.265400 -22.291500 -0.000108 -0.000004 -1.750500 5.314910 -0.349752 -2.192480 -6.469440 -0.000000 -176.517000 1.424920 -1.873080 39.081100 -0.000007 -0.000012 0.280277 -0.645828 23.460500 40.985400 -0.000006 -0.000013 1.750980 3.769540 -73.803700 11.754300 -0.000000 0.000003 -0.001309 0.187325 -8.977620 -2.192510 6.469440 -0.000001 -174.009000 10.851800 -176.621000 -39.081100 -0.002282 -0.040193 0.055153 -0.199664 14.549800 -40.985400 0.000008 0.000006 1.128330 2.409130 -70.096400 -11.754300 -0.000006 -0.000006 -0.008901 0.262905 -5.894420
0.000000 0.000000 0.000000 0.000000 0.000000 -0.000000 -2.042540 92.499200 -0.352969 86.469700 1.362270 3.242650 15.735700 0.000005 -0.000001 85.784400 85.864700 -83.765900 8.984550 -0.406207 -0.000000 0.498422 -0.735714 4.037320 16.377300 -0.000001 -0.000001 5.182610 2.484430 -3.845540 6.456720 -0.000001 -0.000000 -8.369210 2.065230 -2.640200 12.994200 -0.242716 4.980390 -92.718100 8.524540 -72.240900 5.348090 -0.000007 -0.000001 -68.048500 8.996030 -4.224290 24.328600 0.000019 0.000005 20.793300 25.602000 -41.307600 22.291600 -0.000001 0.000005 -13.427900 5.003710 7.237470 12.994500 -0.242716 -4.980390 88.158200 5.544470 -71.591900 -5.348130 -0.000001 -0.000004 -69.363800 32.019500 -7.139530 -24.328900 0.000322 -0.000009 1.098600 4.035740 -15.255600 -22.291500 -0.000108 -0.000004 -1.680450 5.314490 -0.337628 -2.192480 -6.469440 -0.000000 -176.460000 1.288150 -2.104460 39.081100 -0.000007 -0.000012 0.259735 -0.604342 23.257700 40.985400 -0.000006 -0.000013 1.392530 3.949080 -73.508300 11.754300 -0.000000 0.000003 -0.001312 0.187372 -8.975710 -2.192510 6.469440 -0.000001 -174.012000 10.805900 -176.853000 -39.081100 -0.002282 -0.040193 0.049058 -0.178881 14.339300 -40.985400 0.000008 0.000006 0.909920 2.530720 -69.855900 -11.754300 -0.000006 -0.000006 -0.009041 0.263994 -5.849900
